G75*
%MOIN*%
%OFA0B0*%
%FSLAX25Y25*%
%IPPOS*%
%LPD*%
%AMOC8*
5,1,8,0,0,1.08239X$1,22.5*
%
%ADD10R,0.08200X0.08200*%
%ADD11C,0.08200*%
%ADD12C,0.04762*%
D10*
X0049800Y0217800D03*
D11*
X0039800Y0031800D03*
X0049800Y0031800D03*
X0059800Y0031800D03*
X0069800Y0031800D03*
X0079800Y0031800D03*
X0089800Y0031800D03*
X0099800Y0031800D03*
X0109800Y0031800D03*
X0119800Y0031800D03*
X0129800Y0031800D03*
X0139800Y0031800D03*
X0149800Y0031800D03*
X0159800Y0031800D03*
X0169800Y0031800D03*
X0179800Y0031800D03*
X0189800Y0031800D03*
X0199800Y0031800D03*
X0209800Y0031800D03*
X0219800Y0031800D03*
X0229800Y0031800D03*
X0239800Y0031800D03*
X0249800Y0031800D03*
X0259800Y0031800D03*
X0269800Y0031800D03*
X0273800Y0157800D03*
X0263800Y0157800D03*
X0253800Y0157800D03*
X0243800Y0157800D03*
X0233800Y0157800D03*
X0223800Y0157800D03*
X0213800Y0157800D03*
X0203800Y0157800D03*
X0193800Y0157800D03*
X0183800Y0157800D03*
X0173800Y0157800D03*
X0163800Y0157800D03*
X0153800Y0157800D03*
X0143800Y0157800D03*
X0133800Y0157800D03*
X0134800Y0216800D03*
X0144800Y0216800D03*
X0154800Y0216800D03*
X0164800Y0216800D03*
X0174800Y0216800D03*
X0184800Y0216800D03*
X0194800Y0216800D03*
X0204800Y0216800D03*
X0214800Y0216800D03*
X0224800Y0216800D03*
X0234800Y0216800D03*
X0244800Y0216800D03*
X0254800Y0216800D03*
X0264800Y0216800D03*
X0274800Y0216800D03*
X0264800Y0241800D03*
X0254800Y0241800D03*
X0244800Y0241800D03*
X0234800Y0241800D03*
X0224800Y0241800D03*
X0214800Y0241800D03*
X0204800Y0241800D03*
X0194800Y0241800D03*
X0184800Y0241800D03*
X0049800Y0207800D03*
X0049800Y0197800D03*
X0049800Y0187800D03*
X0049800Y0177800D03*
X0049800Y0167800D03*
X0049800Y0157800D03*
X0049800Y0147800D03*
D12*
X0085800Y0097800D03*
X0091800Y0209800D03*
X0276800Y0060800D03*
M02*
