G75*
%MOIN*%
%OFA0B0*%
%FSLAX25Y25*%
%IPPOS*%
%LPD*%
%AMOC8*
5,1,8,0,0,1.08239X$1,22.5*
%
%ADD10C,0.00600*%
%ADD11C,0.00800*%
%ADD12C,0.00500*%
%ADD13C,0.00400*%
D10*
X0027100Y0062100D02*
X0027100Y0068505D01*
X0029235Y0066370D01*
X0031370Y0068505D01*
X0031370Y0062100D01*
X0033545Y0062100D02*
X0035681Y0062100D01*
X0034613Y0062100D02*
X0034613Y0066370D01*
X0033545Y0066370D01*
X0034613Y0068505D02*
X0034613Y0069573D01*
X0037842Y0065303D02*
X0037842Y0063168D01*
X0038910Y0062100D01*
X0042113Y0062100D01*
X0044288Y0062100D02*
X0044288Y0068505D01*
X0045356Y0066370D02*
X0047491Y0066370D01*
X0048558Y0065303D01*
X0048558Y0062100D01*
X0050733Y0063168D02*
X0051801Y0064235D01*
X0055004Y0064235D01*
X0055004Y0065303D02*
X0055004Y0062100D01*
X0051801Y0062100D01*
X0050733Y0063168D01*
X0051801Y0066370D02*
X0053936Y0066370D01*
X0055004Y0065303D01*
X0057179Y0065303D02*
X0058247Y0066370D01*
X0060382Y0066370D01*
X0061449Y0065303D01*
X0061449Y0064235D01*
X0057179Y0064235D01*
X0057179Y0063168D02*
X0057179Y0065303D01*
X0057179Y0063168D02*
X0058247Y0062100D01*
X0060382Y0062100D01*
X0063624Y0062100D02*
X0065760Y0062100D01*
X0064692Y0062100D02*
X0064692Y0068505D01*
X0063624Y0068505D01*
X0067921Y0066370D02*
X0068989Y0067438D01*
X0068989Y0069573D01*
X0072212Y0066370D02*
X0075415Y0066370D01*
X0074347Y0064235D02*
X0072212Y0064235D01*
X0071144Y0065303D01*
X0072212Y0066370D01*
X0074347Y0064235D02*
X0075415Y0063168D01*
X0074347Y0062100D01*
X0071144Y0062100D01*
X0084035Y0062100D02*
X0087238Y0062100D01*
X0088306Y0063168D01*
X0088306Y0065303D01*
X0087238Y0066370D01*
X0084035Y0066370D01*
X0084035Y0068505D02*
X0084035Y0062100D01*
X0090481Y0063168D02*
X0091548Y0062100D01*
X0093683Y0062100D01*
X0094751Y0063168D01*
X0094751Y0065303D01*
X0093683Y0066370D01*
X0091548Y0066370D01*
X0090481Y0065303D01*
X0090481Y0063168D01*
X0096926Y0063168D02*
X0097994Y0064235D01*
X0101197Y0064235D01*
X0101197Y0065303D02*
X0101197Y0062100D01*
X0097994Y0062100D01*
X0096926Y0063168D01*
X0097994Y0066370D02*
X0100129Y0066370D01*
X0101197Y0065303D01*
X0103372Y0066370D02*
X0103372Y0062100D01*
X0103372Y0064235D02*
X0105507Y0066370D01*
X0106574Y0066370D01*
X0108743Y0065303D02*
X0109811Y0066370D01*
X0113013Y0066370D01*
X0113013Y0068505D02*
X0113013Y0062100D01*
X0109811Y0062100D01*
X0108743Y0063168D01*
X0108743Y0065303D01*
X0121634Y0066370D02*
X0121634Y0062100D01*
X0121634Y0064235D02*
X0123769Y0066370D01*
X0124837Y0066370D01*
X0127005Y0065303D02*
X0128073Y0066370D01*
X0130208Y0066370D01*
X0131276Y0065303D01*
X0131276Y0064235D01*
X0127005Y0064235D01*
X0127005Y0063168D02*
X0127005Y0065303D01*
X0127005Y0063168D02*
X0128073Y0062100D01*
X0130208Y0062100D01*
X0133451Y0066370D02*
X0135586Y0062100D01*
X0137721Y0066370D01*
X0146342Y0067438D02*
X0146342Y0063168D01*
X0150612Y0067438D01*
X0150612Y0063168D01*
X0149544Y0062100D01*
X0147409Y0062100D01*
X0146342Y0063168D01*
X0146342Y0067438D02*
X0147409Y0068505D01*
X0149544Y0068505D01*
X0150612Y0067438D01*
X0152787Y0063168D02*
X0153855Y0063168D01*
X0153855Y0062100D01*
X0152787Y0062100D01*
X0152787Y0063168D01*
X0156010Y0062100D02*
X0160280Y0062100D01*
X0158145Y0062100D02*
X0158145Y0068505D01*
X0156010Y0066370D01*
X0045356Y0066370D02*
X0044288Y0065303D01*
X0042113Y0066370D02*
X0038910Y0066370D01*
X0037842Y0065303D01*
D11*
X0037300Y0036800D02*
X0042300Y0036800D01*
X0044800Y0034300D01*
X0047300Y0036800D01*
X0052300Y0036800D01*
X0054800Y0034300D01*
X0057300Y0036800D01*
X0062300Y0036800D01*
X0064800Y0034300D01*
X0067300Y0036800D01*
X0072300Y0036800D01*
X0074800Y0034300D01*
X0077300Y0036800D01*
X0082300Y0036800D01*
X0084800Y0034300D01*
X0087300Y0036800D01*
X0092300Y0036800D01*
X0094800Y0034300D01*
X0097300Y0036800D01*
X0102300Y0036800D01*
X0104800Y0034300D01*
X0107300Y0036800D01*
X0112300Y0036800D01*
X0114800Y0034300D01*
X0117300Y0036800D01*
X0122300Y0036800D01*
X0124800Y0034300D01*
X0127300Y0036800D01*
X0132300Y0036800D01*
X0134800Y0034300D01*
X0137300Y0036800D01*
X0142300Y0036800D01*
X0144800Y0034300D01*
X0147300Y0036800D01*
X0152300Y0036800D01*
X0154800Y0034300D01*
X0157300Y0036800D01*
X0162300Y0036800D01*
X0164800Y0034300D01*
X0167300Y0036800D01*
X0172300Y0036800D01*
X0174800Y0034300D01*
X0177300Y0036800D01*
X0182300Y0036800D01*
X0184800Y0034300D01*
X0187300Y0036800D01*
X0192300Y0036800D01*
X0194800Y0034300D01*
X0197300Y0036800D01*
X0202300Y0036800D01*
X0204800Y0034300D01*
X0207300Y0036800D01*
X0212300Y0036800D01*
X0214800Y0034300D01*
X0217300Y0036800D01*
X0222300Y0036800D01*
X0224800Y0034300D01*
X0227300Y0036800D01*
X0232300Y0036800D01*
X0234800Y0034300D01*
X0237300Y0036800D01*
X0242300Y0036800D01*
X0244800Y0034300D01*
X0247300Y0036800D01*
X0252300Y0036800D01*
X0254800Y0034300D01*
X0257300Y0036800D01*
X0262300Y0036800D01*
X0264800Y0034300D01*
X0267300Y0036800D01*
X0272300Y0036800D01*
X0274800Y0034300D01*
X0274800Y0029300D01*
X0272300Y0026800D01*
X0267300Y0026800D01*
X0264800Y0029300D01*
X0262300Y0026800D01*
X0257300Y0026800D01*
X0254800Y0029300D01*
X0252300Y0026800D01*
X0247300Y0026800D01*
X0244800Y0029300D01*
X0242300Y0026800D01*
X0237300Y0026800D01*
X0234800Y0029300D01*
X0232300Y0026800D01*
X0227300Y0026800D01*
X0224800Y0029300D01*
X0222300Y0026800D01*
X0217300Y0026800D01*
X0214800Y0029300D01*
X0212300Y0026800D01*
X0207300Y0026800D01*
X0204800Y0029300D01*
X0202300Y0026800D01*
X0197300Y0026800D01*
X0194800Y0029300D01*
X0192300Y0026800D01*
X0187300Y0026800D01*
X0184800Y0029300D01*
X0182300Y0026800D01*
X0177300Y0026800D01*
X0174800Y0029300D01*
X0172300Y0026800D01*
X0167300Y0026800D01*
X0164800Y0029300D01*
X0162300Y0026800D01*
X0157300Y0026800D01*
X0154800Y0029300D01*
X0152300Y0026800D01*
X0147300Y0026800D01*
X0144800Y0029300D01*
X0142300Y0026800D01*
X0137300Y0026800D01*
X0134800Y0029300D01*
X0132300Y0026800D01*
X0127300Y0026800D01*
X0124800Y0029300D01*
X0122300Y0026800D01*
X0117300Y0026800D01*
X0114800Y0029300D01*
X0112300Y0026800D01*
X0107300Y0026800D01*
X0104800Y0029300D01*
X0102300Y0026800D01*
X0097300Y0026800D01*
X0094800Y0029300D01*
X0092300Y0026800D01*
X0087300Y0026800D01*
X0084800Y0029300D01*
X0082300Y0026800D01*
X0077300Y0026800D01*
X0074800Y0029300D01*
X0072300Y0026800D01*
X0067300Y0026800D01*
X0064800Y0029300D01*
X0062300Y0026800D01*
X0057300Y0026800D01*
X0054800Y0029300D01*
X0052300Y0026800D01*
X0047300Y0026800D01*
X0044800Y0029300D01*
X0042300Y0026800D01*
X0037300Y0026800D01*
X0034800Y0029300D01*
X0034800Y0034300D01*
X0037300Y0036800D01*
X0047300Y0142800D02*
X0044800Y0145300D01*
X0044800Y0150300D01*
X0047300Y0152800D01*
X0044800Y0155300D01*
X0044800Y0160300D01*
X0047300Y0162800D01*
X0044800Y0165300D01*
X0044800Y0170300D01*
X0047300Y0172800D01*
X0044800Y0175300D01*
X0044800Y0180300D01*
X0047300Y0182800D01*
X0044800Y0185300D01*
X0044800Y0190300D01*
X0047300Y0192800D01*
X0044800Y0195300D01*
X0044800Y0200300D01*
X0047300Y0202800D01*
X0044800Y0205300D01*
X0044800Y0210300D01*
X0047300Y0212800D01*
X0044800Y0215300D01*
X0044800Y0220300D01*
X0047300Y0222800D01*
X0052300Y0222800D01*
X0054800Y0220300D01*
X0054800Y0215300D01*
X0052300Y0212800D01*
X0054800Y0210300D01*
X0054800Y0205300D01*
X0052300Y0202800D01*
X0054800Y0200300D01*
X0054800Y0195300D01*
X0052300Y0192800D01*
X0054800Y0190300D01*
X0054800Y0185300D01*
X0052300Y0182800D01*
X0054800Y0180300D01*
X0054800Y0175300D01*
X0052300Y0172800D01*
X0054800Y0170300D01*
X0054800Y0165300D01*
X0052300Y0162800D01*
X0054800Y0160300D01*
X0054800Y0155300D01*
X0052300Y0152800D01*
X0054800Y0150300D01*
X0054800Y0145300D01*
X0052300Y0142800D01*
X0047300Y0142800D01*
X0128800Y0155300D02*
X0131300Y0152800D01*
X0136300Y0152800D01*
X0138800Y0155300D01*
X0141300Y0152800D01*
X0146300Y0152800D01*
X0148800Y0155300D01*
X0151300Y0152800D01*
X0156300Y0152800D01*
X0158800Y0155300D01*
X0161300Y0152800D01*
X0166300Y0152800D01*
X0168800Y0155300D01*
X0171300Y0152800D01*
X0176300Y0152800D01*
X0178800Y0155300D01*
X0181300Y0152800D01*
X0186300Y0152800D01*
X0188800Y0155300D01*
X0191300Y0152800D01*
X0196300Y0152800D01*
X0198800Y0155300D01*
X0201300Y0152800D01*
X0206300Y0152800D01*
X0208800Y0155300D01*
X0211300Y0152800D01*
X0216300Y0152800D01*
X0218800Y0155300D01*
X0221300Y0152800D01*
X0226300Y0152800D01*
X0228800Y0155300D01*
X0231300Y0152800D01*
X0236300Y0152800D01*
X0238800Y0155300D01*
X0241300Y0152800D01*
X0246300Y0152800D01*
X0248800Y0155300D01*
X0251300Y0152800D01*
X0256300Y0152800D01*
X0258800Y0155300D01*
X0261300Y0152800D01*
X0266300Y0152800D01*
X0268800Y0155300D01*
X0271300Y0152800D01*
X0276300Y0152800D01*
X0278800Y0155300D01*
X0278800Y0160300D01*
X0276300Y0162800D01*
X0271300Y0162800D01*
X0268800Y0160300D01*
X0266300Y0162800D01*
X0261300Y0162800D01*
X0258800Y0160300D01*
X0256300Y0162800D01*
X0251300Y0162800D01*
X0248800Y0160300D01*
X0246300Y0162800D01*
X0241300Y0162800D01*
X0238800Y0160300D01*
X0236300Y0162800D01*
X0231300Y0162800D01*
X0228800Y0160300D01*
X0226300Y0162800D01*
X0221300Y0162800D01*
X0218800Y0160300D01*
X0216300Y0162800D01*
X0211300Y0162800D01*
X0208800Y0160300D01*
X0206300Y0162800D01*
X0201300Y0162800D01*
X0198800Y0160300D01*
X0196300Y0162800D01*
X0191300Y0162800D01*
X0188800Y0160300D01*
X0186300Y0162800D01*
X0181300Y0162800D01*
X0178800Y0160300D01*
X0176300Y0162800D01*
X0171300Y0162800D01*
X0168800Y0160300D01*
X0166300Y0162800D01*
X0161300Y0162800D01*
X0158800Y0160300D01*
X0156300Y0162800D01*
X0151300Y0162800D01*
X0148800Y0160300D01*
X0146300Y0162800D01*
X0141300Y0162800D01*
X0138800Y0160300D01*
X0136300Y0162800D01*
X0131300Y0162800D01*
X0128800Y0160300D01*
X0128800Y0155300D01*
X0132300Y0211800D02*
X0129800Y0214300D01*
X0129800Y0219300D01*
X0132300Y0221800D01*
X0137300Y0221800D01*
X0139800Y0219300D01*
X0142300Y0221800D01*
X0147300Y0221800D01*
X0149800Y0219300D01*
X0152300Y0221800D01*
X0157300Y0221800D01*
X0159800Y0219300D01*
X0162300Y0221800D01*
X0167300Y0221800D01*
X0169800Y0219300D01*
X0172300Y0221800D01*
X0177300Y0221800D01*
X0179800Y0219300D01*
X0182300Y0221800D01*
X0187300Y0221800D01*
X0189800Y0219300D01*
X0192300Y0221800D01*
X0197300Y0221800D01*
X0199800Y0219300D01*
X0202300Y0221800D01*
X0207300Y0221800D01*
X0209800Y0219300D01*
X0212300Y0221800D01*
X0217300Y0221800D01*
X0219800Y0219300D01*
X0222300Y0221800D01*
X0227300Y0221800D01*
X0229800Y0219300D01*
X0232300Y0221800D01*
X0237300Y0221800D01*
X0239800Y0219300D01*
X0242300Y0221800D01*
X0247300Y0221800D01*
X0249800Y0219300D01*
X0252300Y0221800D01*
X0257300Y0221800D01*
X0259800Y0219300D01*
X0262300Y0221800D01*
X0267300Y0221800D01*
X0269800Y0219300D01*
X0272300Y0221800D01*
X0277300Y0221800D01*
X0279800Y0219300D01*
X0279800Y0214300D01*
X0277300Y0211800D01*
X0272300Y0211800D01*
X0269800Y0214300D01*
X0267300Y0211800D01*
X0262300Y0211800D01*
X0259800Y0214300D01*
X0257300Y0211800D01*
X0252300Y0211800D01*
X0249800Y0214300D01*
X0247300Y0211800D01*
X0242300Y0211800D01*
X0239800Y0214300D01*
X0237300Y0211800D01*
X0232300Y0211800D01*
X0229800Y0214300D01*
X0227300Y0211800D01*
X0222300Y0211800D01*
X0219800Y0214300D01*
X0217300Y0211800D01*
X0212300Y0211800D01*
X0209800Y0214300D01*
X0207300Y0211800D01*
X0202300Y0211800D01*
X0199800Y0214300D01*
X0197300Y0211800D01*
X0192300Y0211800D01*
X0189800Y0214300D01*
X0187300Y0211800D01*
X0182300Y0211800D01*
X0179800Y0214300D01*
X0177300Y0211800D01*
X0172300Y0211800D01*
X0169800Y0214300D01*
X0167300Y0211800D01*
X0162300Y0211800D01*
X0159800Y0214300D01*
X0157300Y0211800D01*
X0152300Y0211800D01*
X0149800Y0214300D01*
X0147300Y0211800D01*
X0142300Y0211800D01*
X0139800Y0214300D01*
X0137300Y0211800D01*
X0132300Y0211800D01*
X0179800Y0239300D02*
X0182300Y0236800D01*
X0187300Y0236800D01*
X0189800Y0239300D01*
X0192300Y0236800D01*
X0197300Y0236800D01*
X0199800Y0239300D01*
X0202300Y0236800D01*
X0207300Y0236800D01*
X0209800Y0239300D01*
X0212300Y0236800D01*
X0217300Y0236800D01*
X0219800Y0239300D01*
X0222300Y0236800D01*
X0227300Y0236800D01*
X0229800Y0239300D01*
X0232300Y0236800D01*
X0237300Y0236800D01*
X0239800Y0239300D01*
X0242300Y0236800D01*
X0247300Y0236800D01*
X0249800Y0239300D01*
X0252300Y0236800D01*
X0257300Y0236800D01*
X0259800Y0239300D01*
X0262300Y0236800D01*
X0267300Y0236800D01*
X0269800Y0239300D01*
X0269800Y0244300D01*
X0267300Y0246800D01*
X0262300Y0246800D01*
X0259800Y0244300D01*
X0257300Y0246800D01*
X0252300Y0246800D01*
X0249800Y0244300D01*
X0247300Y0246800D01*
X0242300Y0246800D01*
X0239800Y0244300D01*
X0237300Y0246800D01*
X0232300Y0246800D01*
X0229800Y0244300D01*
X0227300Y0246800D01*
X0222300Y0246800D01*
X0219800Y0244300D01*
X0217300Y0246800D01*
X0212300Y0246800D01*
X0209800Y0244300D01*
X0207300Y0246800D01*
X0202300Y0246800D01*
X0199800Y0244300D01*
X0197300Y0246800D01*
X0192300Y0246800D01*
X0189800Y0244300D01*
X0187300Y0246800D01*
X0182300Y0246800D01*
X0179800Y0244300D01*
X0179800Y0239300D01*
D12*
X0180501Y0249250D02*
X0181251Y0249250D01*
X0182002Y0250001D01*
X0182002Y0253754D01*
X0181251Y0253754D02*
X0182753Y0253754D01*
X0184354Y0253754D02*
X0186606Y0253754D01*
X0187356Y0253003D01*
X0187356Y0251502D01*
X0186606Y0250751D01*
X0184354Y0250751D01*
X0184354Y0249250D02*
X0184354Y0253754D01*
X0180501Y0249250D02*
X0179750Y0250001D01*
X0188958Y0251502D02*
X0191960Y0251502D01*
X0191210Y0249250D02*
X0191210Y0253754D01*
X0188958Y0251502D01*
X0266538Y0205601D02*
X0267289Y0204850D01*
X0268039Y0204850D01*
X0268790Y0205601D01*
X0268790Y0209354D01*
X0268039Y0209354D02*
X0269541Y0209354D01*
X0271142Y0209354D02*
X0273394Y0209354D01*
X0274145Y0208603D01*
X0274145Y0207102D01*
X0273394Y0206351D01*
X0271142Y0206351D01*
X0271142Y0204850D02*
X0271142Y0209354D01*
X0275746Y0207853D02*
X0277247Y0209354D01*
X0277247Y0204850D01*
X0275746Y0204850D02*
X0278749Y0204850D01*
X0140960Y0169003D02*
X0140210Y0169754D01*
X0138708Y0169754D01*
X0137958Y0169003D01*
X0136356Y0169003D02*
X0136356Y0167502D01*
X0135606Y0166751D01*
X0133354Y0166751D01*
X0133354Y0165250D02*
X0133354Y0169754D01*
X0135606Y0169754D01*
X0136356Y0169003D01*
X0137958Y0165250D02*
X0140960Y0168253D01*
X0140960Y0169003D01*
X0140960Y0165250D02*
X0137958Y0165250D01*
X0131002Y0166001D02*
X0131002Y0169754D01*
X0130251Y0169754D02*
X0131753Y0169754D01*
X0131002Y0166001D02*
X0130251Y0165250D01*
X0129501Y0165250D01*
X0128750Y0166001D01*
X0061750Y0196477D02*
X0061750Y0197978D01*
X0060999Y0198729D01*
X0059498Y0198729D01*
X0059498Y0197228D01*
X0057997Y0198729D02*
X0057246Y0197978D01*
X0057246Y0196477D01*
X0057997Y0195726D01*
X0060999Y0195726D01*
X0061750Y0196477D01*
X0057997Y0200330D02*
X0059498Y0201832D01*
X0061750Y0201832D01*
X0059498Y0201832D02*
X0057997Y0203333D01*
X0057246Y0203333D01*
X0059498Y0204934D02*
X0059498Y0207937D01*
X0059498Y0209538D02*
X0057246Y0209538D01*
X0057246Y0212541D01*
X0058747Y0211790D02*
X0059498Y0212541D01*
X0060999Y0212541D01*
X0061750Y0211790D01*
X0061750Y0210289D01*
X0060999Y0209538D01*
X0059498Y0209538D02*
X0058747Y0211039D01*
X0058747Y0211790D01*
X0057997Y0214142D02*
X0057246Y0214893D01*
X0057246Y0216394D01*
X0057997Y0217145D01*
X0058747Y0217145D01*
X0061750Y0214142D01*
X0061750Y0217145D01*
X0061750Y0218746D02*
X0061750Y0221749D01*
X0061750Y0220247D02*
X0057246Y0220247D01*
X0058747Y0218746D01*
X0057997Y0200330D02*
X0057246Y0200330D01*
X0057770Y0043754D02*
X0060022Y0043754D01*
X0060772Y0043003D01*
X0060772Y0041502D01*
X0060022Y0040751D01*
X0057770Y0040751D01*
X0057770Y0039250D02*
X0057770Y0043754D01*
X0056168Y0043003D02*
X0056168Y0041502D01*
X0055418Y0040751D01*
X0053166Y0040751D01*
X0054667Y0040751D02*
X0056168Y0039250D01*
X0053166Y0039250D02*
X0053166Y0043754D01*
X0055418Y0043754D01*
X0056168Y0043003D01*
X0051564Y0043754D02*
X0048562Y0043754D01*
X0048562Y0039250D01*
X0051564Y0039250D01*
X0050063Y0041502D02*
X0048562Y0041502D01*
X0046960Y0041502D02*
X0046210Y0040751D01*
X0043958Y0040751D01*
X0043958Y0039250D02*
X0043958Y0043754D01*
X0046210Y0043754D01*
X0046960Y0043003D01*
X0046960Y0041502D01*
X0042356Y0040001D02*
X0042356Y0043754D01*
X0039354Y0043754D02*
X0039354Y0040001D01*
X0040105Y0039250D01*
X0041606Y0039250D01*
X0042356Y0040001D01*
X0037753Y0040001D02*
X0037002Y0039250D01*
X0035501Y0039250D01*
X0034750Y0040001D01*
X0035501Y0041502D02*
X0037002Y0041502D01*
X0037753Y0040751D01*
X0037753Y0040001D01*
X0035501Y0041502D02*
X0034750Y0042253D01*
X0034750Y0043003D01*
X0035501Y0043754D01*
X0037002Y0043754D01*
X0037753Y0043003D01*
X0062374Y0043754D02*
X0062374Y0039250D01*
X0062374Y0040751D02*
X0064625Y0040751D01*
X0065376Y0041502D01*
X0065376Y0043003D01*
X0064625Y0043754D01*
X0062374Y0043754D01*
X0063875Y0040751D02*
X0065376Y0039250D01*
X0066977Y0040001D02*
X0066977Y0043003D01*
X0067728Y0043754D01*
X0069229Y0043754D01*
X0069980Y0043003D01*
X0069980Y0040001D01*
X0069229Y0039250D01*
X0067728Y0039250D01*
X0066977Y0040001D01*
D13*
X0035000Y0024104D02*
X0035000Y0019500D01*
X0038069Y0019500D02*
X0038069Y0024104D01*
X0036535Y0022569D01*
X0035000Y0024104D01*
X0039604Y0023337D02*
X0040371Y0024104D01*
X0041906Y0024104D01*
X0042673Y0023337D01*
X0042673Y0022569D01*
X0039604Y0019500D01*
X0042673Y0019500D01*
X0044208Y0021802D02*
X0047277Y0021802D01*
X0046510Y0019500D02*
X0046510Y0024104D01*
X0044208Y0021802D01*
X0129000Y0145500D02*
X0129000Y0150104D01*
X0130535Y0148569D01*
X0132069Y0150104D01*
X0132069Y0145500D01*
X0133604Y0145500D02*
X0136673Y0145500D01*
X0135139Y0145500D02*
X0135139Y0150104D01*
X0133604Y0148569D01*
X0138208Y0147802D02*
X0139742Y0148569D01*
X0140510Y0148569D01*
X0141277Y0147802D01*
X0141277Y0146267D01*
X0140510Y0145500D01*
X0138975Y0145500D01*
X0138208Y0146267D01*
X0138208Y0147802D02*
X0138208Y0150104D01*
X0141277Y0150104D01*
X0180000Y0229500D02*
X0180000Y0234104D01*
X0181535Y0232569D01*
X0183069Y0234104D01*
X0183069Y0229500D01*
X0184604Y0230267D02*
X0187673Y0233337D01*
X0187673Y0230267D01*
X0186906Y0229500D01*
X0185371Y0229500D01*
X0184604Y0230267D01*
X0184604Y0233337D01*
X0185371Y0234104D01*
X0186906Y0234104D01*
X0187673Y0233337D01*
X0189208Y0233337D02*
X0189208Y0232569D01*
X0189975Y0231802D01*
X0192277Y0231802D01*
X0192277Y0233337D02*
X0191510Y0234104D01*
X0189975Y0234104D01*
X0189208Y0233337D01*
X0192277Y0233337D02*
X0192277Y0230267D01*
X0191510Y0229500D01*
X0189975Y0229500D01*
X0189208Y0230267D01*
X0266188Y0229104D02*
X0266188Y0224500D01*
X0269257Y0224500D02*
X0269257Y0229104D01*
X0267723Y0227569D01*
X0266188Y0229104D01*
X0270792Y0227569D02*
X0272327Y0229104D01*
X0272327Y0224500D01*
X0273861Y0224500D02*
X0270792Y0224500D01*
X0275396Y0225267D02*
X0276163Y0224500D01*
X0277698Y0224500D01*
X0278465Y0225267D01*
X0278465Y0226802D01*
X0277698Y0227569D01*
X0276931Y0227569D01*
X0275396Y0226802D01*
X0275396Y0229104D01*
X0278465Y0229104D01*
M02*
