G75*
%MOIN*%
%OFA0B0*%
%FSLAX25Y25*%
%IPPOS*%
%LPD*%
%AMOC8*
5,1,8,0,0,1.08239X$1,22.5*
%
%ADD10R,0.07400X0.07400*%
%ADD11C,0.07400*%
%ADD12C,0.02400*%
%ADD13C,0.03962*%
D10*
X0049800Y0217800D03*
D11*
X0049800Y0207800D03*
X0049800Y0197800D03*
X0049800Y0187800D03*
X0049800Y0177800D03*
X0049800Y0167800D03*
X0049800Y0157800D03*
X0049800Y0147800D03*
X0133800Y0157800D03*
X0143800Y0157800D03*
X0153800Y0157800D03*
X0163800Y0157800D03*
X0173800Y0157800D03*
X0183800Y0157800D03*
X0193800Y0157800D03*
X0203800Y0157800D03*
X0213800Y0157800D03*
X0223800Y0157800D03*
X0233800Y0157800D03*
X0243800Y0157800D03*
X0253800Y0157800D03*
X0263800Y0157800D03*
X0273800Y0157800D03*
X0274800Y0216800D03*
X0264800Y0216800D03*
X0254800Y0216800D03*
X0244800Y0216800D03*
X0234800Y0216800D03*
X0224800Y0216800D03*
X0214800Y0216800D03*
X0204800Y0216800D03*
X0194800Y0216800D03*
X0184800Y0216800D03*
X0174800Y0216800D03*
X0164800Y0216800D03*
X0154800Y0216800D03*
X0144800Y0216800D03*
X0134800Y0216800D03*
X0184800Y0241800D03*
X0194800Y0241800D03*
X0204800Y0241800D03*
X0214800Y0241800D03*
X0224800Y0241800D03*
X0234800Y0241800D03*
X0244800Y0241800D03*
X0254800Y0241800D03*
X0264800Y0241800D03*
X0259800Y0031800D03*
X0249800Y0031800D03*
X0239800Y0031800D03*
X0229800Y0031800D03*
X0219800Y0031800D03*
X0209800Y0031800D03*
X0199800Y0031800D03*
X0189800Y0031800D03*
X0179800Y0031800D03*
X0169800Y0031800D03*
X0159800Y0031800D03*
X0149800Y0031800D03*
X0139800Y0031800D03*
X0129800Y0031800D03*
X0119800Y0031800D03*
X0109800Y0031800D03*
X0099800Y0031800D03*
X0089800Y0031800D03*
X0079800Y0031800D03*
X0069800Y0031800D03*
X0059800Y0031800D03*
X0049800Y0031800D03*
X0039800Y0031800D03*
X0269800Y0031800D03*
D12*
X0026200Y0023200D02*
X0026200Y0260400D01*
X0288400Y0260400D01*
X0288400Y0203696D01*
X0288283Y0203825D01*
X0280175Y0214882D01*
X0280500Y0215666D01*
X0280500Y0217934D01*
X0279632Y0220029D01*
X0278029Y0221632D01*
X0275934Y0222500D01*
X0273666Y0222500D01*
X0271571Y0221632D01*
X0269968Y0220029D01*
X0269800Y0219624D01*
X0269632Y0220029D01*
X0268029Y0221632D01*
X0265934Y0222500D01*
X0263666Y0222500D01*
X0261571Y0221632D01*
X0259968Y0220029D01*
X0259800Y0219624D01*
X0259632Y0220029D01*
X0258029Y0221632D01*
X0255934Y0222500D01*
X0253666Y0222500D01*
X0251571Y0221632D01*
X0249968Y0220029D01*
X0249800Y0219624D01*
X0249632Y0220029D01*
X0248029Y0221632D01*
X0245934Y0222500D01*
X0243666Y0222500D01*
X0241571Y0221632D01*
X0239968Y0220029D01*
X0239800Y0219624D01*
X0239632Y0220029D01*
X0238029Y0221632D01*
X0235934Y0222500D01*
X0233666Y0222500D01*
X0231571Y0221632D01*
X0229968Y0220029D01*
X0229800Y0219624D01*
X0229632Y0220029D01*
X0228029Y0221632D01*
X0225934Y0222500D01*
X0223666Y0222500D01*
X0221571Y0221632D01*
X0219968Y0220029D01*
X0219800Y0219624D01*
X0219632Y0220029D01*
X0218029Y0221632D01*
X0215934Y0222500D01*
X0213666Y0222500D01*
X0211571Y0221632D01*
X0209968Y0220029D01*
X0209800Y0219624D01*
X0209632Y0220029D01*
X0208029Y0221632D01*
X0205934Y0222500D01*
X0203666Y0222500D01*
X0201571Y0221632D01*
X0199968Y0220029D01*
X0199800Y0219624D01*
X0199632Y0220029D01*
X0198029Y0221632D01*
X0195934Y0222500D01*
X0193666Y0222500D01*
X0191571Y0221632D01*
X0189968Y0220029D01*
X0189800Y0219624D01*
X0189632Y0220029D01*
X0188029Y0221632D01*
X0185934Y0222500D01*
X0183666Y0222500D01*
X0181571Y0221632D01*
X0179968Y0220029D01*
X0179800Y0219624D01*
X0179632Y0220029D01*
X0178029Y0221632D01*
X0175934Y0222500D01*
X0173666Y0222500D01*
X0171571Y0221632D01*
X0169968Y0220029D01*
X0169800Y0219624D01*
X0169632Y0220029D01*
X0168029Y0221632D01*
X0165934Y0222500D01*
X0163666Y0222500D01*
X0161571Y0221632D01*
X0159968Y0220029D01*
X0159800Y0219624D01*
X0159632Y0220029D01*
X0158029Y0221632D01*
X0155934Y0222500D01*
X0153666Y0222500D01*
X0151571Y0221632D01*
X0149968Y0220029D01*
X0149800Y0219624D01*
X0149632Y0220029D01*
X0148029Y0221632D01*
X0145934Y0222500D01*
X0143666Y0222500D01*
X0141571Y0221632D01*
X0139968Y0220029D01*
X0139800Y0219624D01*
X0139632Y0220029D01*
X0138029Y0221632D01*
X0135934Y0222500D01*
X0133666Y0222500D01*
X0131571Y0221632D01*
X0129968Y0220029D01*
X0129100Y0217934D01*
X0129100Y0215666D01*
X0129968Y0213571D01*
X0131571Y0211968D01*
X0133666Y0211100D01*
X0135934Y0211100D01*
X0138029Y0211968D01*
X0139632Y0213571D01*
X0139800Y0213976D01*
X0139968Y0213571D01*
X0141571Y0211968D01*
X0143666Y0211100D01*
X0145934Y0211100D01*
X0148029Y0211968D01*
X0149632Y0213571D01*
X0149800Y0213976D01*
X0149968Y0213571D01*
X0151571Y0211968D01*
X0153666Y0211100D01*
X0155934Y0211100D01*
X0158029Y0211968D01*
X0159632Y0213571D01*
X0159800Y0213976D01*
X0159968Y0213571D01*
X0161571Y0211968D01*
X0163666Y0211100D01*
X0165934Y0211100D01*
X0168029Y0211968D01*
X0169632Y0213571D01*
X0169800Y0213976D01*
X0169968Y0213571D01*
X0171571Y0211968D01*
X0173666Y0211100D01*
X0175934Y0211100D01*
X0178029Y0211968D01*
X0179632Y0213571D01*
X0179800Y0213976D01*
X0179968Y0213571D01*
X0181571Y0211968D01*
X0183666Y0211100D01*
X0185934Y0211100D01*
X0188029Y0211968D01*
X0189632Y0213571D01*
X0189800Y0213976D01*
X0189968Y0213571D01*
X0191571Y0211968D01*
X0193666Y0211100D01*
X0195934Y0211100D01*
X0198029Y0211968D01*
X0199632Y0213571D01*
X0199800Y0213976D01*
X0199968Y0213571D01*
X0201571Y0211968D01*
X0203666Y0211100D01*
X0205934Y0211100D01*
X0208029Y0211968D01*
X0209632Y0213571D01*
X0209800Y0213976D01*
X0209968Y0213571D01*
X0211571Y0211968D01*
X0213666Y0211100D01*
X0215934Y0211100D01*
X0218029Y0211968D01*
X0219632Y0213571D01*
X0219800Y0213976D01*
X0219968Y0213571D01*
X0221571Y0211968D01*
X0223666Y0211100D01*
X0225934Y0211100D01*
X0228029Y0211968D01*
X0229632Y0213571D01*
X0229800Y0213976D01*
X0229968Y0213571D01*
X0231571Y0211968D01*
X0233666Y0211100D01*
X0235934Y0211100D01*
X0238029Y0211968D01*
X0239632Y0213571D01*
X0239800Y0213976D01*
X0239968Y0213571D01*
X0241571Y0211968D01*
X0243666Y0211100D01*
X0245934Y0211100D01*
X0248029Y0211968D01*
X0249632Y0213571D01*
X0249800Y0213976D01*
X0249968Y0213571D01*
X0251571Y0211968D01*
X0253666Y0211100D01*
X0255934Y0211100D01*
X0258029Y0211968D01*
X0259632Y0213571D01*
X0259800Y0213976D01*
X0259968Y0213571D01*
X0261571Y0211968D01*
X0263666Y0211100D01*
X0265934Y0211100D01*
X0268029Y0211968D01*
X0269632Y0213571D01*
X0269800Y0213976D01*
X0269968Y0213571D01*
X0271571Y0211968D01*
X0273666Y0211100D01*
X0275012Y0211100D01*
X0282547Y0200824D01*
X0279752Y0144912D01*
X0180836Y0142002D01*
X0180331Y0142029D01*
X0180204Y0141984D01*
X0180070Y0141980D01*
X0179608Y0141773D01*
X0179131Y0141604D01*
X0179031Y0141513D01*
X0178908Y0141458D01*
X0178561Y0141090D01*
X0178185Y0140751D01*
X0178127Y0140630D01*
X0178035Y0140532D01*
X0177855Y0140059D01*
X0128972Y0037500D01*
X0128666Y0037500D01*
X0126571Y0036632D01*
X0124968Y0035029D01*
X0124800Y0034624D01*
X0124632Y0035029D01*
X0123029Y0036632D01*
X0120934Y0037500D01*
X0118666Y0037500D01*
X0116571Y0036632D01*
X0114968Y0035029D01*
X0114800Y0034624D01*
X0114632Y0035029D01*
X0113029Y0036632D01*
X0110934Y0037500D01*
X0108666Y0037500D01*
X0106571Y0036632D01*
X0104968Y0035029D01*
X0104800Y0034624D01*
X0104632Y0035029D01*
X0103029Y0036632D01*
X0100934Y0037500D01*
X0098666Y0037500D01*
X0096571Y0036632D01*
X0094968Y0035029D01*
X0094800Y0034624D01*
X0094632Y0035029D01*
X0093029Y0036632D01*
X0090934Y0037500D01*
X0088666Y0037500D01*
X0086571Y0036632D01*
X0084968Y0035029D01*
X0084800Y0034624D01*
X0084632Y0035029D01*
X0083029Y0036632D01*
X0080934Y0037500D01*
X0078666Y0037500D01*
X0076571Y0036632D01*
X0074968Y0035029D01*
X0074800Y0034624D01*
X0074632Y0035029D01*
X0073029Y0036632D01*
X0070934Y0037500D01*
X0068666Y0037500D01*
X0066571Y0036632D01*
X0064968Y0035029D01*
X0064800Y0034624D01*
X0064632Y0035029D01*
X0063029Y0036632D01*
X0060934Y0037500D01*
X0058666Y0037500D01*
X0056571Y0036632D01*
X0054968Y0035029D01*
X0054800Y0034624D01*
X0054632Y0035029D01*
X0053029Y0036632D01*
X0050934Y0037500D01*
X0048666Y0037500D01*
X0046571Y0036632D01*
X0044968Y0035029D01*
X0044882Y0034822D01*
X0044846Y0034892D01*
X0044300Y0035644D01*
X0043644Y0036300D01*
X0042892Y0036846D01*
X0042065Y0037268D01*
X0041182Y0037555D01*
X0040264Y0037700D01*
X0039800Y0037700D01*
X0039800Y0031800D01*
X0039800Y0031800D01*
X0039800Y0025900D01*
X0040264Y0025900D01*
X0041182Y0026045D01*
X0042065Y0026332D01*
X0042892Y0026754D01*
X0043644Y0027300D01*
X0044300Y0027956D01*
X0044846Y0028708D01*
X0044882Y0028778D01*
X0044968Y0028571D01*
X0046571Y0026968D01*
X0048666Y0026100D01*
X0050934Y0026100D01*
X0053029Y0026968D01*
X0054632Y0028571D01*
X0054800Y0028976D01*
X0054968Y0028571D01*
X0056571Y0026968D01*
X0058666Y0026100D01*
X0060934Y0026100D01*
X0063029Y0026968D01*
X0064632Y0028571D01*
X0064800Y0028976D01*
X0064968Y0028571D01*
X0066571Y0026968D01*
X0068666Y0026100D01*
X0070934Y0026100D01*
X0073029Y0026968D01*
X0074632Y0028571D01*
X0074800Y0028976D01*
X0074968Y0028571D01*
X0076571Y0026968D01*
X0078666Y0026100D01*
X0080934Y0026100D01*
X0083029Y0026968D01*
X0084632Y0028571D01*
X0084800Y0028976D01*
X0084968Y0028571D01*
X0086571Y0026968D01*
X0088666Y0026100D01*
X0090934Y0026100D01*
X0093029Y0026968D01*
X0094632Y0028571D01*
X0094800Y0028976D01*
X0094968Y0028571D01*
X0096571Y0026968D01*
X0098666Y0026100D01*
X0100934Y0026100D01*
X0103029Y0026968D01*
X0104632Y0028571D01*
X0104800Y0028976D01*
X0104968Y0028571D01*
X0106571Y0026968D01*
X0108666Y0026100D01*
X0110934Y0026100D01*
X0113029Y0026968D01*
X0114632Y0028571D01*
X0114800Y0028976D01*
X0114968Y0028571D01*
X0116571Y0026968D01*
X0118666Y0026100D01*
X0120934Y0026100D01*
X0123029Y0026968D01*
X0124632Y0028571D01*
X0124800Y0028976D01*
X0124968Y0028571D01*
X0126571Y0026968D01*
X0128666Y0026100D01*
X0130934Y0026100D01*
X0133029Y0026968D01*
X0134632Y0028571D01*
X0134800Y0028976D01*
X0134968Y0028571D01*
X0136571Y0026968D01*
X0138666Y0026100D01*
X0140934Y0026100D01*
X0143029Y0026968D01*
X0144632Y0028571D01*
X0144800Y0028976D01*
X0144968Y0028571D01*
X0146571Y0026968D01*
X0148666Y0026100D01*
X0150934Y0026100D01*
X0153029Y0026968D01*
X0154632Y0028571D01*
X0154800Y0028976D01*
X0154968Y0028571D01*
X0156571Y0026968D01*
X0158666Y0026100D01*
X0160934Y0026100D01*
X0163029Y0026968D01*
X0164632Y0028571D01*
X0164800Y0028976D01*
X0164968Y0028571D01*
X0166571Y0026968D01*
X0168666Y0026100D01*
X0170934Y0026100D01*
X0173029Y0026968D01*
X0174632Y0028571D01*
X0174800Y0028976D01*
X0174968Y0028571D01*
X0176571Y0026968D01*
X0178666Y0026100D01*
X0180934Y0026100D01*
X0183029Y0026968D01*
X0184632Y0028571D01*
X0184800Y0028976D01*
X0184968Y0028571D01*
X0186571Y0026968D01*
X0188666Y0026100D01*
X0190934Y0026100D01*
X0193029Y0026968D01*
X0194632Y0028571D01*
X0194800Y0028976D01*
X0194968Y0028571D01*
X0196571Y0026968D01*
X0198666Y0026100D01*
X0200934Y0026100D01*
X0203029Y0026968D01*
X0204632Y0028571D01*
X0204800Y0028976D01*
X0204968Y0028571D01*
X0206571Y0026968D01*
X0208666Y0026100D01*
X0210934Y0026100D01*
X0213029Y0026968D01*
X0214632Y0028571D01*
X0214800Y0028976D01*
X0214968Y0028571D01*
X0216571Y0026968D01*
X0218666Y0026100D01*
X0220934Y0026100D01*
X0223029Y0026968D01*
X0224632Y0028571D01*
X0224800Y0028976D01*
X0224968Y0028571D01*
X0226571Y0026968D01*
X0228666Y0026100D01*
X0230934Y0026100D01*
X0233029Y0026968D01*
X0234632Y0028571D01*
X0234800Y0028976D01*
X0234968Y0028571D01*
X0236571Y0026968D01*
X0238666Y0026100D01*
X0240934Y0026100D01*
X0243029Y0026968D01*
X0244632Y0028571D01*
X0244800Y0028976D01*
X0244968Y0028571D01*
X0246571Y0026968D01*
X0248666Y0026100D01*
X0250934Y0026100D01*
X0253029Y0026968D01*
X0254632Y0028571D01*
X0254800Y0028976D01*
X0254968Y0028571D01*
X0256571Y0026968D01*
X0258666Y0026100D01*
X0260934Y0026100D01*
X0263029Y0026968D01*
X0264632Y0028571D01*
X0264800Y0028976D01*
X0264968Y0028571D01*
X0266571Y0026968D01*
X0268666Y0026100D01*
X0270934Y0026100D01*
X0273029Y0026968D01*
X0274632Y0028571D01*
X0275500Y0030666D01*
X0275500Y0032934D01*
X0274632Y0035029D01*
X0273029Y0036632D01*
X0270934Y0037500D01*
X0268666Y0037500D01*
X0266571Y0036632D01*
X0264968Y0035029D01*
X0264800Y0034624D01*
X0264632Y0035029D01*
X0263029Y0036632D01*
X0260934Y0037500D01*
X0258666Y0037500D01*
X0256571Y0036632D01*
X0254968Y0035029D01*
X0254800Y0034624D01*
X0254632Y0035029D01*
X0253029Y0036632D01*
X0250934Y0037500D01*
X0248666Y0037500D01*
X0246571Y0036632D01*
X0244968Y0035029D01*
X0244800Y0034624D01*
X0244632Y0035029D01*
X0243029Y0036632D01*
X0240934Y0037500D01*
X0238666Y0037500D01*
X0236571Y0036632D01*
X0234968Y0035029D01*
X0234800Y0034624D01*
X0234632Y0035029D01*
X0233029Y0036632D01*
X0230934Y0037500D01*
X0228666Y0037500D01*
X0226571Y0036632D01*
X0224968Y0035029D01*
X0224800Y0034624D01*
X0224632Y0035029D01*
X0223029Y0036632D01*
X0220934Y0037500D01*
X0218666Y0037500D01*
X0216571Y0036632D01*
X0214968Y0035029D01*
X0214800Y0034624D01*
X0214632Y0035029D01*
X0213029Y0036632D01*
X0210934Y0037500D01*
X0208666Y0037500D01*
X0206571Y0036632D01*
X0204968Y0035029D01*
X0204800Y0034624D01*
X0204632Y0035029D01*
X0203029Y0036632D01*
X0200934Y0037500D01*
X0198666Y0037500D01*
X0196571Y0036632D01*
X0194968Y0035029D01*
X0194800Y0034624D01*
X0194632Y0035029D01*
X0193029Y0036632D01*
X0190934Y0037500D01*
X0188666Y0037500D01*
X0186571Y0036632D01*
X0184968Y0035029D01*
X0184800Y0034624D01*
X0184632Y0035029D01*
X0183029Y0036632D01*
X0180934Y0037500D01*
X0178666Y0037500D01*
X0176571Y0036632D01*
X0174968Y0035029D01*
X0174800Y0034624D01*
X0174632Y0035029D01*
X0173029Y0036632D01*
X0170934Y0037500D01*
X0168666Y0037500D01*
X0166571Y0036632D01*
X0164968Y0035029D01*
X0164800Y0034624D01*
X0164632Y0035029D01*
X0163029Y0036632D01*
X0160934Y0037500D01*
X0158666Y0037500D01*
X0156571Y0036632D01*
X0154968Y0035029D01*
X0154800Y0034624D01*
X0154632Y0035029D01*
X0153029Y0036632D01*
X0150934Y0037500D01*
X0148666Y0037500D01*
X0146571Y0036632D01*
X0144968Y0035029D01*
X0144800Y0034624D01*
X0144632Y0035029D01*
X0143029Y0036632D01*
X0140934Y0037500D01*
X0138666Y0037500D01*
X0136571Y0036632D01*
X0134968Y0035029D01*
X0134800Y0034624D01*
X0134749Y0034746D01*
X0182848Y0135659D01*
X0282767Y0138598D01*
X0283276Y0138572D01*
X0283399Y0138616D01*
X0283530Y0138620D01*
X0283995Y0138829D01*
X0284475Y0139000D01*
X0284572Y0139088D01*
X0284692Y0139142D01*
X0285041Y0139512D01*
X0285419Y0139854D01*
X0285475Y0139973D01*
X0285565Y0140068D01*
X0285746Y0140544D01*
X0285964Y0141004D01*
X0285971Y0141135D01*
X0286017Y0141258D01*
X0286002Y0141767D01*
X0288400Y0189720D01*
X0288400Y0023200D01*
X0026200Y0023200D01*
X0026200Y0023996D02*
X0288400Y0023996D01*
X0288400Y0026394D02*
X0271644Y0026394D01*
X0267956Y0026394D02*
X0261644Y0026394D01*
X0264724Y0028793D02*
X0264876Y0028793D01*
X0265927Y0035988D02*
X0263673Y0035988D01*
X0255927Y0035988D02*
X0253673Y0035988D01*
X0254724Y0028793D02*
X0254876Y0028793D01*
X0257956Y0026394D02*
X0251644Y0026394D01*
X0247956Y0026394D02*
X0241644Y0026394D01*
X0237956Y0026394D02*
X0231644Y0026394D01*
X0227956Y0026394D02*
X0221644Y0026394D01*
X0224724Y0028793D02*
X0224876Y0028793D01*
X0225927Y0035988D02*
X0223673Y0035988D01*
X0215927Y0035988D02*
X0213673Y0035988D01*
X0214724Y0028793D02*
X0214876Y0028793D01*
X0217956Y0026394D02*
X0211644Y0026394D01*
X0207956Y0026394D02*
X0201644Y0026394D01*
X0197956Y0026394D02*
X0191644Y0026394D01*
X0194724Y0028793D02*
X0194876Y0028793D01*
X0195927Y0035988D02*
X0193673Y0035988D01*
X0185927Y0035988D02*
X0183673Y0035988D01*
X0184724Y0028793D02*
X0184876Y0028793D01*
X0187956Y0026394D02*
X0181644Y0026394D01*
X0177956Y0026394D02*
X0171644Y0026394D01*
X0167956Y0026394D02*
X0161644Y0026394D01*
X0157956Y0026394D02*
X0151644Y0026394D01*
X0147956Y0026394D02*
X0141644Y0026394D01*
X0137956Y0026394D02*
X0131644Y0026394D01*
X0127956Y0026394D02*
X0121644Y0026394D01*
X0124724Y0028793D02*
X0124876Y0028793D01*
X0129800Y0031800D02*
X0180800Y0138800D01*
X0282800Y0141800D01*
X0285800Y0201800D01*
X0274800Y0216800D01*
X0270612Y0220673D02*
X0268988Y0220673D01*
X0269539Y0213478D02*
X0270061Y0213478D01*
X0275027Y0211079D02*
X0054710Y0211079D01*
X0054846Y0210892D02*
X0054300Y0211644D01*
X0053844Y0212100D01*
X0054328Y0212100D01*
X0055500Y0213272D01*
X0055500Y0222328D01*
X0054328Y0223500D01*
X0045272Y0223500D01*
X0044100Y0222328D01*
X0044100Y0213272D01*
X0045272Y0212100D01*
X0045756Y0212100D01*
X0045300Y0211644D01*
X0044754Y0210892D01*
X0044332Y0210065D01*
X0044045Y0209182D01*
X0043900Y0208264D01*
X0043900Y0207800D01*
X0049800Y0207800D01*
X0055700Y0207800D01*
X0055700Y0208264D01*
X0055555Y0209182D01*
X0055268Y0210065D01*
X0054846Y0210892D01*
X0055634Y0208681D02*
X0276786Y0208681D01*
X0278545Y0206282D02*
X0055511Y0206282D01*
X0055555Y0206418D02*
X0055700Y0207336D01*
X0055700Y0207800D01*
X0049800Y0207800D01*
X0049800Y0207800D01*
X0049800Y0207800D01*
X0043900Y0207800D01*
X0043900Y0207336D01*
X0044045Y0206418D01*
X0044332Y0205535D01*
X0044754Y0204708D01*
X0045300Y0203956D01*
X0045956Y0203300D01*
X0046708Y0202754D01*
X0046778Y0202718D01*
X0046571Y0202632D01*
X0044968Y0201029D01*
X0044100Y0198934D01*
X0044100Y0196666D01*
X0044968Y0194571D01*
X0046571Y0192968D01*
X0046976Y0192800D01*
X0046571Y0192632D01*
X0044968Y0191029D01*
X0044100Y0188934D01*
X0044100Y0186666D01*
X0044968Y0184571D01*
X0046571Y0182968D01*
X0046976Y0182800D01*
X0046571Y0182632D01*
X0044968Y0181029D01*
X0044100Y0178934D01*
X0044100Y0176666D01*
X0044968Y0174571D01*
X0046571Y0172968D01*
X0046976Y0172800D01*
X0046571Y0172632D01*
X0044968Y0171029D01*
X0044100Y0168934D01*
X0044100Y0166666D01*
X0044968Y0164571D01*
X0046571Y0162968D01*
X0046976Y0162800D01*
X0046571Y0162632D01*
X0044968Y0161029D01*
X0044100Y0158934D01*
X0044100Y0156666D01*
X0044968Y0154571D01*
X0046571Y0152968D01*
X0046976Y0152800D01*
X0046571Y0152632D01*
X0044968Y0151029D01*
X0044100Y0148934D01*
X0044100Y0146666D01*
X0044968Y0144571D01*
X0046571Y0142968D01*
X0048666Y0142100D01*
X0050934Y0142100D01*
X0053029Y0142968D01*
X0054632Y0144571D01*
X0055500Y0146666D01*
X0055500Y0148934D01*
X0054632Y0151029D01*
X0053029Y0152632D01*
X0052624Y0152800D01*
X0053029Y0152968D01*
X0054632Y0154571D01*
X0055500Y0156666D01*
X0055500Y0158934D01*
X0054632Y0161029D01*
X0053029Y0162632D01*
X0052624Y0162800D01*
X0053029Y0162968D01*
X0054632Y0164571D01*
X0055500Y0166666D01*
X0055500Y0168934D01*
X0054632Y0171029D01*
X0053029Y0172632D01*
X0052624Y0172800D01*
X0053029Y0172968D01*
X0054632Y0174571D01*
X0055500Y0176666D01*
X0055500Y0178934D01*
X0054632Y0181029D01*
X0053029Y0182632D01*
X0052624Y0182800D01*
X0053029Y0182968D01*
X0054632Y0184571D01*
X0055500Y0186666D01*
X0055500Y0188934D01*
X0054632Y0191029D01*
X0053029Y0192632D01*
X0052624Y0192800D01*
X0053029Y0192968D01*
X0054632Y0194571D01*
X0055500Y0196666D01*
X0055500Y0198934D01*
X0054632Y0201029D01*
X0053029Y0202632D01*
X0052822Y0202718D01*
X0052892Y0202754D01*
X0053644Y0203300D01*
X0054300Y0203956D01*
X0054846Y0204708D01*
X0055268Y0205535D01*
X0055555Y0206418D01*
X0054228Y0203884D02*
X0280304Y0203884D01*
X0282062Y0201485D02*
X0054176Y0201485D01*
X0055437Y0199087D02*
X0282460Y0199087D01*
X0282340Y0196688D02*
X0055500Y0196688D01*
X0054351Y0194290D02*
X0282220Y0194290D01*
X0282101Y0191891D02*
X0053770Y0191891D01*
X0055268Y0189493D02*
X0281981Y0189493D01*
X0281861Y0187094D02*
X0055500Y0187094D01*
X0054684Y0184696D02*
X0281741Y0184696D01*
X0281621Y0182297D02*
X0053364Y0182297D01*
X0055100Y0179899D02*
X0281501Y0179899D01*
X0281381Y0177500D02*
X0055500Y0177500D01*
X0054852Y0175102D02*
X0281261Y0175102D01*
X0281141Y0172703D02*
X0052857Y0172703D01*
X0054932Y0170305D02*
X0281021Y0170305D01*
X0280901Y0167906D02*
X0055500Y0167906D01*
X0055020Y0165508D02*
X0280781Y0165508D01*
X0280661Y0163109D02*
X0275877Y0163109D01*
X0274934Y0163500D02*
X0272666Y0163500D01*
X0270571Y0162632D01*
X0268968Y0161029D01*
X0268800Y0160624D01*
X0268632Y0161029D01*
X0267029Y0162632D01*
X0264934Y0163500D01*
X0262666Y0163500D01*
X0260571Y0162632D01*
X0258968Y0161029D01*
X0258800Y0160624D01*
X0258632Y0161029D01*
X0257029Y0162632D01*
X0254934Y0163500D01*
X0252666Y0163500D01*
X0250571Y0162632D01*
X0248968Y0161029D01*
X0248800Y0160624D01*
X0248632Y0161029D01*
X0247029Y0162632D01*
X0244934Y0163500D01*
X0242666Y0163500D01*
X0240571Y0162632D01*
X0238968Y0161029D01*
X0238800Y0160624D01*
X0238632Y0161029D01*
X0237029Y0162632D01*
X0234934Y0163500D01*
X0232666Y0163500D01*
X0230571Y0162632D01*
X0228968Y0161029D01*
X0228800Y0160624D01*
X0228632Y0161029D01*
X0227029Y0162632D01*
X0224934Y0163500D01*
X0222666Y0163500D01*
X0220571Y0162632D01*
X0218968Y0161029D01*
X0218800Y0160624D01*
X0218632Y0161029D01*
X0217029Y0162632D01*
X0214934Y0163500D01*
X0212666Y0163500D01*
X0210571Y0162632D01*
X0208968Y0161029D01*
X0208800Y0160624D01*
X0208632Y0161029D01*
X0207029Y0162632D01*
X0204934Y0163500D01*
X0202666Y0163500D01*
X0200571Y0162632D01*
X0198968Y0161029D01*
X0198800Y0160624D01*
X0198632Y0161029D01*
X0197029Y0162632D01*
X0194934Y0163500D01*
X0192666Y0163500D01*
X0190571Y0162632D01*
X0188968Y0161029D01*
X0188800Y0160624D01*
X0188632Y0161029D01*
X0187029Y0162632D01*
X0184934Y0163500D01*
X0182666Y0163500D01*
X0180571Y0162632D01*
X0178968Y0161029D01*
X0178800Y0160624D01*
X0178632Y0161029D01*
X0177029Y0162632D01*
X0174934Y0163500D01*
X0172666Y0163500D01*
X0170571Y0162632D01*
X0168968Y0161029D01*
X0168882Y0160822D01*
X0168846Y0160892D01*
X0168300Y0161644D01*
X0167644Y0162300D01*
X0166892Y0162846D01*
X0166065Y0163268D01*
X0165182Y0163555D01*
X0164264Y0163700D01*
X0163800Y0163700D01*
X0163800Y0157800D01*
X0153800Y0142800D01*
X0113800Y0142800D01*
X0130800Y0243800D01*
X0184800Y0241800D01*
X0184800Y0241800D01*
X0184800Y0247700D01*
X0185264Y0247700D01*
X0186182Y0247555D01*
X0187065Y0247268D01*
X0187892Y0246846D01*
X0188644Y0246300D01*
X0189300Y0245644D01*
X0189846Y0244892D01*
X0189882Y0244822D01*
X0189968Y0245029D01*
X0191571Y0246632D01*
X0193666Y0247500D01*
X0195934Y0247500D01*
X0198029Y0246632D01*
X0199632Y0245029D01*
X0199800Y0244624D01*
X0199968Y0245029D01*
X0201571Y0246632D01*
X0203666Y0247500D01*
X0205934Y0247500D01*
X0208029Y0246632D01*
X0209632Y0245029D01*
X0209800Y0244624D01*
X0209968Y0245029D01*
X0211571Y0246632D01*
X0213666Y0247500D01*
X0215934Y0247500D01*
X0218029Y0246632D01*
X0219632Y0245029D01*
X0219800Y0244624D01*
X0219968Y0245029D01*
X0221571Y0246632D01*
X0223666Y0247500D01*
X0225934Y0247500D01*
X0228029Y0246632D01*
X0229632Y0245029D01*
X0229800Y0244624D01*
X0229968Y0245029D01*
X0231571Y0246632D01*
X0233666Y0247500D01*
X0235934Y0247500D01*
X0238029Y0246632D01*
X0239632Y0245029D01*
X0239800Y0244624D01*
X0239968Y0245029D01*
X0241571Y0246632D01*
X0243666Y0247500D01*
X0245934Y0247500D01*
X0248029Y0246632D01*
X0249632Y0245029D01*
X0249800Y0244624D01*
X0249968Y0245029D01*
X0251571Y0246632D01*
X0253666Y0247500D01*
X0255934Y0247500D01*
X0258029Y0246632D01*
X0259632Y0245029D01*
X0259800Y0244624D01*
X0259968Y0245029D01*
X0261571Y0246632D01*
X0263666Y0247500D01*
X0265934Y0247500D01*
X0268029Y0246632D01*
X0269632Y0245029D01*
X0270500Y0242934D01*
X0270500Y0240666D01*
X0269632Y0238571D01*
X0268029Y0236968D01*
X0265934Y0236100D01*
X0263666Y0236100D01*
X0261571Y0236968D01*
X0259968Y0238571D01*
X0259800Y0238976D01*
X0259632Y0238571D01*
X0258029Y0236968D01*
X0255934Y0236100D01*
X0253666Y0236100D01*
X0251571Y0236968D01*
X0249968Y0238571D01*
X0249800Y0238976D01*
X0249632Y0238571D01*
X0248029Y0236968D01*
X0245934Y0236100D01*
X0243666Y0236100D01*
X0241571Y0236968D01*
X0239968Y0238571D01*
X0239800Y0238976D01*
X0239632Y0238571D01*
X0238029Y0236968D01*
X0235934Y0236100D01*
X0233666Y0236100D01*
X0231571Y0236968D01*
X0229968Y0238571D01*
X0229800Y0238976D01*
X0229632Y0238571D01*
X0228029Y0236968D01*
X0225934Y0236100D01*
X0223666Y0236100D01*
X0221571Y0236968D01*
X0219968Y0238571D01*
X0219800Y0238976D01*
X0219632Y0238571D01*
X0218029Y0236968D01*
X0215934Y0236100D01*
X0213666Y0236100D01*
X0211571Y0236968D01*
X0209968Y0238571D01*
X0209800Y0238976D01*
X0209632Y0238571D01*
X0208029Y0236968D01*
X0205934Y0236100D01*
X0203666Y0236100D01*
X0201571Y0236968D01*
X0199968Y0238571D01*
X0199800Y0238976D01*
X0199632Y0238571D01*
X0198029Y0236968D01*
X0195934Y0236100D01*
X0193666Y0236100D01*
X0191571Y0236968D01*
X0189968Y0238571D01*
X0189882Y0238778D01*
X0189846Y0238708D01*
X0189300Y0237956D01*
X0188644Y0237300D01*
X0187892Y0236754D01*
X0187065Y0236332D01*
X0186182Y0236045D01*
X0185264Y0235900D01*
X0184800Y0235900D01*
X0184800Y0241800D01*
X0184800Y0241800D01*
X0178900Y0241800D01*
X0178900Y0242264D01*
X0179045Y0243182D01*
X0179332Y0244065D01*
X0179754Y0244892D01*
X0180300Y0245644D01*
X0180956Y0246300D01*
X0181708Y0246846D01*
X0182535Y0247268D01*
X0183418Y0247555D01*
X0184336Y0247700D01*
X0184800Y0247700D01*
X0184800Y0241800D01*
X0184800Y0241800D01*
X0178900Y0241800D01*
X0178900Y0241336D01*
X0179045Y0240418D01*
X0179332Y0239535D01*
X0179754Y0238708D01*
X0180300Y0237956D01*
X0180956Y0237300D01*
X0181708Y0236754D01*
X0182535Y0236332D01*
X0183418Y0236045D01*
X0184336Y0235900D01*
X0184800Y0235900D01*
X0184800Y0241800D01*
X0184800Y0242260D02*
X0184800Y0242260D01*
X0184800Y0239862D02*
X0184800Y0239862D01*
X0184800Y0237463D02*
X0184800Y0237463D01*
X0180793Y0237463D02*
X0026200Y0237463D01*
X0026200Y0235065D02*
X0288400Y0235065D01*
X0288400Y0237463D02*
X0268524Y0237463D01*
X0270167Y0239862D02*
X0288400Y0239862D01*
X0288400Y0242260D02*
X0270500Y0242260D01*
X0269786Y0244659D02*
X0288400Y0244659D01*
X0288400Y0247057D02*
X0267003Y0247057D01*
X0262597Y0247057D02*
X0257003Y0247057D01*
X0259786Y0244659D02*
X0259814Y0244659D01*
X0261076Y0237463D02*
X0258524Y0237463D01*
X0251076Y0237463D02*
X0248524Y0237463D01*
X0249786Y0244659D02*
X0249814Y0244659D01*
X0252597Y0247057D02*
X0247003Y0247057D01*
X0242597Y0247057D02*
X0237003Y0247057D01*
X0239786Y0244659D02*
X0239814Y0244659D01*
X0241076Y0237463D02*
X0238524Y0237463D01*
X0231076Y0237463D02*
X0228524Y0237463D01*
X0229786Y0244659D02*
X0229814Y0244659D01*
X0232597Y0247057D02*
X0227003Y0247057D01*
X0222597Y0247057D02*
X0217003Y0247057D01*
X0219786Y0244659D02*
X0219814Y0244659D01*
X0221076Y0237463D02*
X0218524Y0237463D01*
X0211076Y0237463D02*
X0208524Y0237463D01*
X0209786Y0244659D02*
X0209814Y0244659D01*
X0212597Y0247057D02*
X0207003Y0247057D01*
X0202597Y0247057D02*
X0197003Y0247057D01*
X0199786Y0244659D02*
X0199814Y0244659D01*
X0201076Y0237463D02*
X0198524Y0237463D01*
X0191076Y0237463D02*
X0188807Y0237463D01*
X0184800Y0244659D02*
X0184800Y0244659D01*
X0184800Y0247057D02*
X0184800Y0247057D01*
X0182122Y0247057D02*
X0026200Y0247057D01*
X0026200Y0244659D02*
X0179635Y0244659D01*
X0178900Y0242260D02*
X0026200Y0242260D01*
X0026200Y0239862D02*
X0179226Y0239862D01*
X0187478Y0247057D02*
X0192597Y0247057D01*
X0190612Y0220673D02*
X0188988Y0220673D01*
X0189539Y0213478D02*
X0190061Y0213478D01*
X0199539Y0213478D02*
X0200061Y0213478D01*
X0200612Y0220673D02*
X0198988Y0220673D01*
X0208988Y0220673D02*
X0210612Y0220673D01*
X0210061Y0213478D02*
X0209539Y0213478D01*
X0219539Y0213478D02*
X0220061Y0213478D01*
X0220612Y0220673D02*
X0218988Y0220673D01*
X0228988Y0220673D02*
X0230612Y0220673D01*
X0230061Y0213478D02*
X0229539Y0213478D01*
X0239539Y0213478D02*
X0240061Y0213478D01*
X0240612Y0220673D02*
X0238988Y0220673D01*
X0248988Y0220673D02*
X0250612Y0220673D01*
X0250061Y0213478D02*
X0249539Y0213478D01*
X0259539Y0213478D02*
X0260061Y0213478D01*
X0260612Y0220673D02*
X0258988Y0220673D01*
X0278988Y0220673D02*
X0288400Y0220673D01*
X0288400Y0218275D02*
X0280359Y0218275D01*
X0280500Y0215876D02*
X0288400Y0215876D01*
X0288400Y0213478D02*
X0281204Y0213478D01*
X0282963Y0211079D02*
X0288400Y0211079D01*
X0288400Y0208681D02*
X0284722Y0208681D01*
X0286481Y0206282D02*
X0288400Y0206282D01*
X0288400Y0203884D02*
X0288240Y0203884D01*
X0288389Y0189493D02*
X0288400Y0189493D01*
X0288400Y0187094D02*
X0288269Y0187094D01*
X0288149Y0184696D02*
X0288400Y0184696D01*
X0288400Y0182297D02*
X0288029Y0182297D01*
X0287909Y0179899D02*
X0288400Y0179899D01*
X0288400Y0177500D02*
X0287789Y0177500D01*
X0287669Y0175102D02*
X0288400Y0175102D01*
X0288400Y0172703D02*
X0287549Y0172703D01*
X0287429Y0170305D02*
X0288400Y0170305D01*
X0288400Y0167906D02*
X0287309Y0167906D01*
X0287189Y0165508D02*
X0288400Y0165508D01*
X0288400Y0163109D02*
X0287069Y0163109D01*
X0286950Y0160711D02*
X0288400Y0160711D01*
X0288400Y0158312D02*
X0286830Y0158312D01*
X0286710Y0155914D02*
X0288400Y0155914D01*
X0288400Y0153515D02*
X0286590Y0153515D01*
X0286470Y0151117D02*
X0288400Y0151117D01*
X0288400Y0148718D02*
X0286350Y0148718D01*
X0286230Y0146320D02*
X0288400Y0146320D01*
X0288400Y0143921D02*
X0286110Y0143921D01*
X0286010Y0141523D02*
X0288400Y0141523D01*
X0288400Y0139124D02*
X0284653Y0139124D01*
X0288400Y0136726D02*
X0219116Y0136726D01*
X0222666Y0152100D02*
X0220571Y0152968D01*
X0218968Y0154571D01*
X0218800Y0154976D01*
X0218632Y0154571D01*
X0217029Y0152968D01*
X0214934Y0152100D01*
X0212666Y0152100D01*
X0210571Y0152968D01*
X0208968Y0154571D01*
X0208800Y0154976D01*
X0208632Y0154571D01*
X0207029Y0152968D01*
X0204934Y0152100D01*
X0202666Y0152100D01*
X0200571Y0152968D01*
X0198968Y0154571D01*
X0198800Y0154976D01*
X0198632Y0154571D01*
X0197029Y0152968D01*
X0194934Y0152100D01*
X0192666Y0152100D01*
X0190571Y0152968D01*
X0188968Y0154571D01*
X0188800Y0154976D01*
X0188632Y0154571D01*
X0187029Y0152968D01*
X0184934Y0152100D01*
X0182666Y0152100D01*
X0180571Y0152968D01*
X0178968Y0154571D01*
X0178800Y0154976D01*
X0178632Y0154571D01*
X0177029Y0152968D01*
X0174934Y0152100D01*
X0172666Y0152100D01*
X0170571Y0152968D01*
X0168968Y0154571D01*
X0168882Y0154778D01*
X0168846Y0154708D01*
X0168300Y0153956D01*
X0167644Y0153300D01*
X0166892Y0152754D01*
X0166065Y0152332D01*
X0165182Y0152045D01*
X0164264Y0151900D01*
X0163800Y0151900D01*
X0163800Y0157800D01*
X0163800Y0157800D01*
X0163800Y0163700D01*
X0163336Y0163700D01*
X0162418Y0163555D01*
X0161535Y0163268D01*
X0160708Y0162846D01*
X0159956Y0162300D01*
X0159300Y0161644D01*
X0158754Y0160892D01*
X0158718Y0160822D01*
X0158632Y0161029D01*
X0157029Y0162632D01*
X0154934Y0163500D01*
X0152666Y0163500D01*
X0150571Y0162632D01*
X0148968Y0161029D01*
X0148800Y0160624D01*
X0148632Y0161029D01*
X0147029Y0162632D01*
X0144934Y0163500D01*
X0142666Y0163500D01*
X0140571Y0162632D01*
X0138968Y0161029D01*
X0138800Y0160624D01*
X0138632Y0161029D01*
X0137029Y0162632D01*
X0134934Y0163500D01*
X0132666Y0163500D01*
X0130571Y0162632D01*
X0128968Y0161029D01*
X0128100Y0158934D01*
X0128100Y0156666D01*
X0128968Y0154571D01*
X0130571Y0152968D01*
X0132666Y0152100D01*
X0134934Y0152100D01*
X0137029Y0152968D01*
X0138632Y0154571D01*
X0138800Y0154976D01*
X0138968Y0154571D01*
X0140571Y0152968D01*
X0142666Y0152100D01*
X0144934Y0152100D01*
X0147029Y0152968D01*
X0148632Y0154571D01*
X0148800Y0154976D01*
X0148968Y0154571D01*
X0150571Y0152968D01*
X0152666Y0152100D01*
X0154934Y0152100D01*
X0157029Y0152968D01*
X0158632Y0154571D01*
X0158718Y0154778D01*
X0158754Y0154708D01*
X0159300Y0153956D01*
X0159956Y0153300D01*
X0160708Y0152754D01*
X0161535Y0152332D01*
X0162418Y0152045D01*
X0163336Y0151900D01*
X0163800Y0151900D01*
X0163800Y0157800D01*
X0163800Y0157800D01*
X0163800Y0158312D02*
X0163800Y0158312D01*
X0163800Y0155914D02*
X0163800Y0155914D01*
X0163800Y0153515D02*
X0163800Y0153515D01*
X0159741Y0153515D02*
X0157576Y0153515D01*
X0150024Y0153515D02*
X0147576Y0153515D01*
X0148764Y0160711D02*
X0148836Y0160711D01*
X0151723Y0163109D02*
X0145877Y0163109D01*
X0141723Y0163109D02*
X0135877Y0163109D01*
X0138764Y0160711D02*
X0138836Y0160711D01*
X0140024Y0153515D02*
X0137576Y0153515D01*
X0130024Y0153515D02*
X0053576Y0153515D01*
X0054544Y0151117D02*
X0280062Y0151117D01*
X0280182Y0153515D02*
X0277576Y0153515D01*
X0277029Y0152968D02*
X0278632Y0154571D01*
X0279500Y0156666D01*
X0279500Y0158934D01*
X0278632Y0161029D01*
X0277029Y0162632D01*
X0274934Y0163500D01*
X0271723Y0163109D02*
X0265877Y0163109D01*
X0268764Y0160711D02*
X0268836Y0160711D01*
X0268800Y0154976D02*
X0268968Y0154571D01*
X0270571Y0152968D01*
X0272666Y0152100D01*
X0274934Y0152100D01*
X0277029Y0152968D01*
X0279188Y0155914D02*
X0280302Y0155914D01*
X0280422Y0158312D02*
X0279500Y0158312D01*
X0278764Y0160711D02*
X0280542Y0160711D01*
X0279942Y0148718D02*
X0055500Y0148718D01*
X0055356Y0146320D02*
X0279822Y0146320D01*
X0270024Y0153515D02*
X0267576Y0153515D01*
X0267029Y0152968D02*
X0268632Y0154571D01*
X0268800Y0154976D01*
X0267029Y0152968D02*
X0264934Y0152100D01*
X0262666Y0152100D01*
X0260571Y0152968D01*
X0258968Y0154571D01*
X0258800Y0154976D01*
X0258632Y0154571D01*
X0257029Y0152968D01*
X0254934Y0152100D01*
X0252666Y0152100D01*
X0250571Y0152968D01*
X0248968Y0154571D01*
X0248800Y0154976D01*
X0248632Y0154571D01*
X0247029Y0152968D01*
X0244934Y0152100D01*
X0242666Y0152100D01*
X0240571Y0152968D01*
X0238968Y0154571D01*
X0238800Y0154976D01*
X0238632Y0154571D01*
X0237029Y0152968D01*
X0234934Y0152100D01*
X0232666Y0152100D01*
X0230571Y0152968D01*
X0228968Y0154571D01*
X0228800Y0154976D01*
X0228632Y0154571D01*
X0227029Y0152968D01*
X0224934Y0152100D01*
X0222666Y0152100D01*
X0220024Y0153515D02*
X0217576Y0153515D01*
X0218764Y0160711D02*
X0218836Y0160711D01*
X0221723Y0163109D02*
X0215877Y0163109D01*
X0211723Y0163109D02*
X0205877Y0163109D01*
X0208764Y0160711D02*
X0208836Y0160711D01*
X0210024Y0153515D02*
X0207576Y0153515D01*
X0200024Y0153515D02*
X0197576Y0153515D01*
X0198764Y0160711D02*
X0198836Y0160711D01*
X0201723Y0163109D02*
X0195877Y0163109D01*
X0191723Y0163109D02*
X0185877Y0163109D01*
X0188764Y0160711D02*
X0188836Y0160711D01*
X0190024Y0153515D02*
X0187576Y0153515D01*
X0180024Y0153515D02*
X0177576Y0153515D01*
X0178764Y0160711D02*
X0178836Y0160711D01*
X0181723Y0163109D02*
X0175877Y0163109D01*
X0171723Y0163109D02*
X0166376Y0163109D01*
X0163800Y0163109D02*
X0163800Y0163109D01*
X0163800Y0160711D02*
X0163800Y0160711D01*
X0161224Y0163109D02*
X0155877Y0163109D01*
X0167859Y0153515D02*
X0170024Y0153515D01*
X0179041Y0141523D02*
X0026200Y0141523D01*
X0026200Y0143921D02*
X0045618Y0143921D01*
X0044244Y0146320D02*
X0026200Y0146320D01*
X0026200Y0148718D02*
X0044100Y0148718D01*
X0045056Y0151117D02*
X0026200Y0151117D01*
X0026200Y0153515D02*
X0046024Y0153515D01*
X0044412Y0155914D02*
X0026200Y0155914D01*
X0026200Y0158312D02*
X0044100Y0158312D01*
X0044836Y0160711D02*
X0026200Y0160711D01*
X0026200Y0163109D02*
X0046430Y0163109D01*
X0044580Y0165508D02*
X0026200Y0165508D01*
X0026200Y0167906D02*
X0044100Y0167906D01*
X0044668Y0170305D02*
X0026200Y0170305D01*
X0026200Y0172703D02*
X0046743Y0172703D01*
X0044748Y0175102D02*
X0026200Y0175102D01*
X0026200Y0177500D02*
X0044100Y0177500D01*
X0044500Y0179899D02*
X0026200Y0179899D01*
X0026200Y0182297D02*
X0046236Y0182297D01*
X0044916Y0184696D02*
X0026200Y0184696D01*
X0026200Y0187094D02*
X0044100Y0187094D01*
X0044332Y0189493D02*
X0026200Y0189493D01*
X0026200Y0191891D02*
X0045830Y0191891D01*
X0045249Y0194290D02*
X0026200Y0194290D01*
X0026200Y0196688D02*
X0044100Y0196688D01*
X0044163Y0199087D02*
X0026200Y0199087D01*
X0026200Y0201485D02*
X0045424Y0201485D01*
X0045372Y0203884D02*
X0026200Y0203884D01*
X0026200Y0206282D02*
X0044089Y0206282D01*
X0043966Y0208681D02*
X0026200Y0208681D01*
X0026200Y0211079D02*
X0044890Y0211079D01*
X0044100Y0213478D02*
X0026200Y0213478D01*
X0026200Y0215876D02*
X0044100Y0215876D01*
X0044100Y0218275D02*
X0026200Y0218275D01*
X0026200Y0220673D02*
X0044100Y0220673D01*
X0044844Y0223072D02*
X0026200Y0223072D01*
X0026200Y0225470D02*
X0288400Y0225470D01*
X0288400Y0223072D02*
X0054756Y0223072D01*
X0055500Y0220673D02*
X0130612Y0220673D01*
X0129241Y0218275D02*
X0055500Y0218275D01*
X0055500Y0215876D02*
X0129100Y0215876D01*
X0130061Y0213478D02*
X0055500Y0213478D01*
X0026200Y0227869D02*
X0288400Y0227869D01*
X0288400Y0230268D02*
X0026200Y0230268D01*
X0026200Y0232666D02*
X0288400Y0232666D01*
X0288400Y0249456D02*
X0026200Y0249456D01*
X0026200Y0251854D02*
X0288400Y0251854D01*
X0288400Y0254253D02*
X0026200Y0254253D01*
X0026200Y0256651D02*
X0288400Y0256651D01*
X0288400Y0259050D02*
X0026200Y0259050D01*
X0053170Y0163109D02*
X0131723Y0163109D01*
X0128836Y0160711D02*
X0054764Y0160711D01*
X0055500Y0158312D02*
X0128100Y0158312D01*
X0128412Y0155914D02*
X0055188Y0155914D01*
X0053982Y0143921D02*
X0246071Y0143921D01*
X0247576Y0153515D02*
X0250024Y0153515D01*
X0248836Y0160711D02*
X0248764Y0160711D01*
X0245877Y0163109D02*
X0251723Y0163109D01*
X0255877Y0163109D02*
X0261723Y0163109D01*
X0258836Y0160711D02*
X0258764Y0160711D01*
X0257576Y0153515D02*
X0260024Y0153515D01*
X0240024Y0153515D02*
X0237576Y0153515D01*
X0238764Y0160711D02*
X0238836Y0160711D01*
X0241723Y0163109D02*
X0235877Y0163109D01*
X0231723Y0163109D02*
X0225877Y0163109D01*
X0228764Y0160711D02*
X0228836Y0160711D01*
X0230024Y0153515D02*
X0227576Y0153515D01*
X0182213Y0134327D02*
X0288400Y0134327D01*
X0288400Y0131929D02*
X0181070Y0131929D01*
X0179926Y0129530D02*
X0288400Y0129530D01*
X0288400Y0127132D02*
X0178783Y0127132D01*
X0177640Y0124733D02*
X0288400Y0124733D01*
X0288400Y0122334D02*
X0176497Y0122334D01*
X0175354Y0119936D02*
X0288400Y0119936D01*
X0288400Y0117537D02*
X0174210Y0117537D01*
X0173067Y0115139D02*
X0288400Y0115139D01*
X0288400Y0112740D02*
X0171924Y0112740D01*
X0170781Y0110342D02*
X0288400Y0110342D01*
X0288400Y0107943D02*
X0169638Y0107943D01*
X0168494Y0105545D02*
X0288400Y0105545D01*
X0288400Y0103146D02*
X0167351Y0103146D01*
X0166208Y0100748D02*
X0288400Y0100748D01*
X0288400Y0098349D02*
X0165065Y0098349D01*
X0163921Y0095951D02*
X0288400Y0095951D01*
X0288400Y0093552D02*
X0162778Y0093552D01*
X0161635Y0091154D02*
X0288400Y0091154D01*
X0288400Y0088755D02*
X0160492Y0088755D01*
X0159349Y0086357D02*
X0288400Y0086357D01*
X0288400Y0083958D02*
X0158205Y0083958D01*
X0157062Y0081560D02*
X0288400Y0081560D01*
X0288400Y0079161D02*
X0155919Y0079161D01*
X0154776Y0076763D02*
X0288400Y0076763D01*
X0288400Y0074364D02*
X0153633Y0074364D01*
X0152489Y0071966D02*
X0288400Y0071966D01*
X0288400Y0069567D02*
X0151346Y0069567D01*
X0150203Y0067169D02*
X0288400Y0067169D01*
X0288400Y0064770D02*
X0149060Y0064770D01*
X0147916Y0062372D02*
X0288400Y0062372D01*
X0288400Y0059973D02*
X0146773Y0059973D01*
X0145630Y0057575D02*
X0288400Y0057575D01*
X0288400Y0055176D02*
X0144487Y0055176D01*
X0143344Y0052778D02*
X0288400Y0052778D01*
X0288400Y0050379D02*
X0142200Y0050379D01*
X0141057Y0047981D02*
X0288400Y0047981D01*
X0288400Y0045582D02*
X0139914Y0045582D01*
X0138771Y0043184D02*
X0288400Y0043184D01*
X0288400Y0040785D02*
X0137628Y0040785D01*
X0136484Y0038387D02*
X0288400Y0038387D01*
X0288400Y0035988D02*
X0273673Y0035988D01*
X0275228Y0033590D02*
X0288400Y0033590D01*
X0288400Y0031191D02*
X0275500Y0031191D01*
X0274724Y0028793D02*
X0288400Y0028793D01*
X0245927Y0035988D02*
X0243673Y0035988D01*
X0244724Y0028793D02*
X0244876Y0028793D01*
X0234876Y0028793D02*
X0234724Y0028793D01*
X0233673Y0035988D02*
X0235927Y0035988D01*
X0205927Y0035988D02*
X0203673Y0035988D01*
X0204724Y0028793D02*
X0204876Y0028793D01*
X0175927Y0035988D02*
X0173673Y0035988D01*
X0174724Y0028793D02*
X0174876Y0028793D01*
X0164876Y0028793D02*
X0164724Y0028793D01*
X0163673Y0035988D02*
X0165927Y0035988D01*
X0155927Y0035988D02*
X0153673Y0035988D01*
X0154724Y0028793D02*
X0154876Y0028793D01*
X0145927Y0035988D02*
X0143673Y0035988D01*
X0144724Y0028793D02*
X0144876Y0028793D01*
X0134876Y0028793D02*
X0134724Y0028793D01*
X0135341Y0035988D02*
X0135927Y0035988D01*
X0129395Y0038387D02*
X0026200Y0038387D01*
X0026200Y0040785D02*
X0130538Y0040785D01*
X0131681Y0043184D02*
X0026200Y0043184D01*
X0026200Y0045582D02*
X0132824Y0045582D01*
X0133967Y0047981D02*
X0026200Y0047981D01*
X0026200Y0050379D02*
X0135111Y0050379D01*
X0136254Y0052778D02*
X0026200Y0052778D01*
X0026200Y0055176D02*
X0137397Y0055176D01*
X0138540Y0057575D02*
X0026200Y0057575D01*
X0026200Y0059973D02*
X0139683Y0059973D01*
X0140827Y0062372D02*
X0026200Y0062372D01*
X0026200Y0064770D02*
X0141970Y0064770D01*
X0143113Y0067169D02*
X0026200Y0067169D01*
X0026200Y0069567D02*
X0144256Y0069567D01*
X0145400Y0071966D02*
X0026200Y0071966D01*
X0026200Y0074364D02*
X0146543Y0074364D01*
X0147686Y0076763D02*
X0026200Y0076763D01*
X0026200Y0079161D02*
X0148829Y0079161D01*
X0149972Y0081560D02*
X0026200Y0081560D01*
X0026200Y0083958D02*
X0151116Y0083958D01*
X0152259Y0086357D02*
X0026200Y0086357D01*
X0026200Y0088755D02*
X0153402Y0088755D01*
X0154545Y0091154D02*
X0026200Y0091154D01*
X0026200Y0093552D02*
X0155688Y0093552D01*
X0156832Y0095951D02*
X0026200Y0095951D01*
X0026200Y0098349D02*
X0157975Y0098349D01*
X0159118Y0100748D02*
X0026200Y0100748D01*
X0026200Y0103146D02*
X0160261Y0103146D01*
X0161405Y0105545D02*
X0026200Y0105545D01*
X0026200Y0107943D02*
X0162548Y0107943D01*
X0163691Y0110342D02*
X0026200Y0110342D01*
X0026200Y0112740D02*
X0164834Y0112740D01*
X0165977Y0115139D02*
X0026200Y0115139D01*
X0026200Y0117537D02*
X0167121Y0117537D01*
X0168264Y0119936D02*
X0026200Y0119936D01*
X0026200Y0122334D02*
X0169407Y0122334D01*
X0170550Y0124733D02*
X0026200Y0124733D01*
X0026200Y0127132D02*
X0171694Y0127132D01*
X0172837Y0129530D02*
X0026200Y0129530D01*
X0026200Y0131929D02*
X0173980Y0131929D01*
X0175123Y0134327D02*
X0026200Y0134327D01*
X0026200Y0136726D02*
X0176266Y0136726D01*
X0177410Y0139124D02*
X0026200Y0139124D01*
X0039336Y0037700D02*
X0038418Y0037555D01*
X0037535Y0037268D01*
X0036708Y0036846D01*
X0035956Y0036300D01*
X0035300Y0035644D01*
X0034754Y0034892D01*
X0034332Y0034065D01*
X0034045Y0033182D01*
X0033900Y0032264D01*
X0033900Y0031800D01*
X0039800Y0031800D01*
X0039800Y0031800D01*
X0039800Y0031800D01*
X0039800Y0037700D01*
X0039336Y0037700D01*
X0039800Y0035988D02*
X0039800Y0035988D01*
X0039800Y0033590D02*
X0039800Y0033590D01*
X0039800Y0031800D02*
X0033900Y0031800D01*
X0033900Y0031336D01*
X0034045Y0030418D01*
X0034332Y0029535D01*
X0034754Y0028708D01*
X0035300Y0027956D01*
X0035956Y0027300D01*
X0036708Y0026754D01*
X0037535Y0026332D01*
X0038418Y0026045D01*
X0039336Y0025900D01*
X0039800Y0025900D01*
X0039800Y0031800D01*
X0039800Y0031191D02*
X0039800Y0031191D01*
X0039800Y0028793D02*
X0039800Y0028793D01*
X0039800Y0026394D02*
X0039800Y0026394D01*
X0042186Y0026394D02*
X0047956Y0026394D01*
X0051644Y0026394D02*
X0057956Y0026394D01*
X0061644Y0026394D02*
X0067956Y0026394D01*
X0071644Y0026394D02*
X0077956Y0026394D01*
X0081644Y0026394D02*
X0087956Y0026394D01*
X0084876Y0028793D02*
X0084724Y0028793D01*
X0083673Y0035988D02*
X0085927Y0035988D01*
X0093673Y0035988D02*
X0095927Y0035988D01*
X0094876Y0028793D02*
X0094724Y0028793D01*
X0091644Y0026394D02*
X0097956Y0026394D01*
X0101644Y0026394D02*
X0107956Y0026394D01*
X0111644Y0026394D02*
X0117956Y0026394D01*
X0114876Y0028793D02*
X0114724Y0028793D01*
X0113673Y0035988D02*
X0115927Y0035988D01*
X0123673Y0035988D02*
X0125927Y0035988D01*
X0105927Y0035988D02*
X0103673Y0035988D01*
X0104724Y0028793D02*
X0104876Y0028793D01*
X0075927Y0035988D02*
X0073673Y0035988D01*
X0074724Y0028793D02*
X0074876Y0028793D01*
X0064876Y0028793D02*
X0064724Y0028793D01*
X0063673Y0035988D02*
X0065927Y0035988D01*
X0055927Y0035988D02*
X0053673Y0035988D01*
X0054724Y0028793D02*
X0054876Y0028793D01*
X0045927Y0035988D02*
X0043956Y0035988D01*
X0035644Y0035988D02*
X0026200Y0035988D01*
X0026200Y0033590D02*
X0034178Y0033590D01*
X0033923Y0031191D02*
X0026200Y0031191D01*
X0026200Y0028793D02*
X0034711Y0028793D01*
X0037414Y0026394D02*
X0026200Y0026394D01*
X0139539Y0213478D02*
X0140061Y0213478D01*
X0140612Y0220673D02*
X0138988Y0220673D01*
X0148988Y0220673D02*
X0150612Y0220673D01*
X0150061Y0213478D02*
X0149539Y0213478D01*
X0159539Y0213478D02*
X0160061Y0213478D01*
X0160612Y0220673D02*
X0158988Y0220673D01*
X0168988Y0220673D02*
X0170612Y0220673D01*
X0178988Y0220673D02*
X0180612Y0220673D01*
X0180061Y0213478D02*
X0179539Y0213478D01*
X0170061Y0213478D02*
X0169539Y0213478D01*
D13*
X0091800Y0209800D03*
X0085800Y0097800D03*
X0276800Y0060800D03*
M02*
