%
M48
M72
T01C0.02362
T02C0.04000
%
T01
X85800Y97800
X91800Y209800
X276800Y60800
T02
X39800Y31800
X49800Y31800
X59800Y31800
X69800Y31800
X79800Y31800
X89800Y31800
X99800Y31800
X109800Y31800
X119800Y31800
X129800Y31800
X139800Y31800
X149800Y31800
X159800Y31800
X169800Y31800
X179800Y31800
X189800Y31800
X199800Y31800
X209800Y31800
X219800Y31800
X229800Y31800
X239800Y31800
X249800Y31800
X259800Y31800
X269800Y31800
X273800Y157800
X263800Y157800
X253800Y157800
X243800Y157800
X233800Y157800
X223800Y157800
X213800Y157800
X203800Y157800
X193800Y157800
X183800Y157800
X173800Y157800
X163800Y157800
X153800Y157800
X143800Y157800
X133800Y157800
X134800Y216800
X144800Y216800
X154800Y216800
X164800Y216800
X174800Y216800
X184800Y216800
X194800Y216800
X204800Y216800
X214800Y216800
X224800Y216800
X234800Y216800
X244800Y216800
X254800Y216800
X264800Y216800
X274800Y216800
X264800Y241800
X254800Y241800
X244800Y241800
X234800Y241800
X224800Y241800
X214800Y241800
X204800Y241800
X194800Y241800
X184800Y241800
X49800Y217800
X49800Y207800
X49800Y197800
X49800Y187800
X49800Y177800
X49800Y167800
X49800Y157800
X49800Y147800
M30
